<svg width="20" height="20" viewBox="0 0 20 20" fill="none" xmlns="http://www.w3.org/2000/svg">
<path fill-rule="evenodd" clip-rule="evenodd" d="M10.0013 13.2872L16.4746 19.5246C17.1239 20.1552 17.5465 20.1617 18.2077 19.5246L19.5065 18.2729C20.1428 17.66 20.1859 17.2577 19.5065 16.603L12.6532 10.0003L19.5071 3.39753C20.149 2.77696 20.1615 2.35815 19.5071 1.72699L18.2083 0.47586C17.5346 -0.173531 17.1183 -0.143532 16.4752 0.47586L10.0013 6.7133L3.52799 0.476448C2.88485 -0.142944 2.46859 -0.172943 1.79482 0.476448L0.496043 1.72758C-0.158973 2.35874 -0.147098 2.77755 0.496043 3.39812L7.34933 10.0003L0.496043 16.603C-0.183349 17.2577 -0.147098 17.66 0.496043 18.2729L1.7942 19.5246C2.44984 20.1617 2.87235 20.1552 3.52737 19.5246L10.0013 13.2872Z" fill="#474747"/>
</svg>
