<svg width="17" height="17" viewBox="0 0 17 17" fill="none" xmlns="http://www.w3.org/2000/svg">
<path d="M15.9375 15H1.0625C0.475697 15 0 15.4477 0 16C0 16.5523 0.475697 17 1.0625 17H15.9375C16.5243 17 17 16.5523 17 16C17 15.4477 16.5243 15 15.9375 15Z" fill="white"/>
<path d="M0 14L0 16C0 16.5523 0.475697 17 1.0625 17C1.6493 17 2.125 16.5523 2.125 16V14C2.125 13.4477 1.6493 13 1.0625 13C0.475697 13 0 13.4477 0 14Z" fill="white"/>
<path d="M14.875 14V16C14.875 16.5523 15.3507 17 15.9375 17C16.5243 17 17 16.5523 17 16V14C17 13.4477 16.5243 13 15.9375 13C15.3507 13 14.875 13.4477 14.875 14Z" fill="white"/>
<path d="M8.50004 12C8.27976 12.0016 8.06441 11.9387 7.88379 11.82L3.63379 9C3.40473 8.84707 3.24932 8.615 3.20153 8.35453C3.15375 8.09406 3.21748 7.82637 3.37879 7.61C3.45931 7.50185 3.5618 7.40978 3.68033 7.33911C3.79887 7.26844 3.9311 7.22056 4.0694 7.19825C4.2077 7.17593 4.34932 7.17962 4.4861 7.2091C4.62287 7.23858 4.75209 7.29327 4.86629 7.37L8.50004 9.76L12.1125 7.2C12.338 7.04087 12.6213 6.97255 12.9003 7.01005C13.1793 7.04756 13.431 7.18783 13.6 7.4C13.7691 7.61218 13.8417 7.87887 13.8019 8.14142C13.762 8.40397 13.613 8.64087 13.3875 8.8L9.13754 11.8C8.95363 11.9298 8.72993 12 8.50004 12Z" fill="white"/>
<path d="M8.5 9.99998C8.21821 9.99998 7.94796 9.89463 7.7487 9.70709C7.54944 9.51955 7.4375 9.2652 7.4375 8.99998V0.999998C7.4375 0.734782 7.54944 0.480429 7.7487 0.292893C7.94796 0.105357 8.21821 0 8.5 0C8.78179 0 9.05204 0.105357 9.2513 0.292893C9.45056 0.480429 9.5625 0.734782 9.5625 0.999998V8.99998C9.5625 9.2652 9.45056 9.51955 9.2513 9.70709C9.05204 9.89463 8.78179 9.99998 8.5 9.99998Z" fill="white"/>
</svg>
