<svg width="23" height="13" viewBox="0 0 23 13" fill="none" xmlns="http://www.w3.org/2000/svg">
<path d="M14.947 6.49863C14.947 8.22238 13.4009 9.61975 11.4938 9.61975C9.58659 9.61975 8.04053 8.22238 8.04053 6.49863C8.04053 4.77487 9.58659 3.37752 11.4938 3.37752C13.4009 3.3775 14.947 4.77489 14.947 6.49863ZM11.5 0C9.52535 0.00826334 7.47857 0.461771 5.54101 1.33004C4.1024 2.00126 2.70039 2.94828 1.48338 4.11717C0.885653 4.71384 0.123261 5.57782 0 6.49965C0.0145667 7.29815 0.922492 8.28375 1.48338 8.88215C2.62463 10.0051 3.99012 10.9257 5.54101 11.67C7.34787 12.4972 9.34781 12.9735 11.5 13C13.4765 12.9916 15.5229 12.5329 17.4583 11.67C18.8969 10.9987 20.2996 10.051 21.5166 8.88215C22.1143 8.28547 22.8767 7.42147 23 6.49965C22.9854 5.70114 22.0775 4.71551 21.5166 4.11713C20.3754 2.99415 19.0092 2.07428 17.4583 1.33C15.6523 0.503376 13.6475 0.0303592 11.5 0ZM11.4985 1.61376C14.4908 1.61376 16.9165 3.80153 16.9165 6.50035C16.9165 9.19915 14.4908 11.3869 11.4985 11.3869C8.50626 11.3869 6.08061 9.19914 6.08061 6.50035C6.08061 3.80153 8.50626 1.61376 11.4985 1.61376Z" fill="white"/>
</svg>
