<svg width="25" height="32" viewBox="0 0 25 32" fill="none" xmlns="http://www.w3.org/2000/svg">
<path d="M10.9147 21.0719L10.6413 21.3022C10.286 21.6155 9.83049 21.7814 9.36584 21.7814C9.15629 21.7814 8.94675 21.7445 8.74631 21.68C8.08123 21.4681 7.58013 20.9245 7.41614 20.2426L6.83305 17.8562L4.48248 18.0221L0 28.7748L4.56448 26.7569C4.5827 26.7477 4.59181 26.7477 4.61003 26.7385C5.08379 26.5542 5.6031 26.7938 5.78532 27.2729L7.54369 31.9905L11.5069 22.4908L10.9147 21.0719Z" fill="#CCCCCC"/>
<path d="M12.4999 5.35254C9.97619 5.35254 7.92627 7.41648 7.92627 9.96876C7.93538 12.521 9.97619 14.585 12.4999 14.585C15.0235 14.585 17.0735 12.5303 17.0735 9.97797C17.0735 7.42569 15.0235 5.35254 12.4999 5.35254Z" fill="#CCCCCC"/>
<path d="M22.7668 9.82182L20.0609 8.10802C19.6873 7.87767 19.5325 7.39854 19.6965 6.98391L20.89 3.98935C20.8991 3.96171 20.8991 3.94328 20.8991 3.91564C20.8991 3.81429 20.8171 3.74057 20.7169 3.74979L17.5281 3.97092C17.0908 3.99857 16.6899 3.70372 16.5806 3.27066L15.8153 0.137895C15.7971 0.0733965 15.7515 0.0273264 15.6968 0.00889839C15.6422 -0.00952964 15.5784 0.00889839 15.5328 0.0457544L13.0821 2.12812C12.745 2.41376 12.2439 2.41376 11.9068 2.12812L9.46509 0.0457544C9.41954 -0.000315621 9.35576 -0.00952964 9.3011 0.00889839C9.23732 0.0273264 9.19177 0.0733965 9.18266 0.137895L8.41736 3.27066C8.30803 3.70372 7.90716 3.99857 7.46984 3.97092L4.28108 3.74979C4.25375 3.74979 4.23553 3.74979 4.2082 3.759C4.11709 3.79586 4.07154 3.89721 4.10798 3.98935L5.30149 6.98391C5.46548 7.39854 5.3106 7.86845 4.93706 8.10802L2.23117 9.82182C2.1765 9.84946 2.14917 9.90475 2.14917 9.96925C2.14917 10.0337 2.1765 10.089 2.23117 10.1259L4.93706 11.8305C5.3106 12.0608 5.46548 12.54 5.30149 12.9546L4.10798 15.9399C4.08976 15.986 4.08976 16.0321 4.10798 16.0781C4.1262 16.115 4.16264 16.1518 4.2082 16.1703L4.22642 16.1795C4.25375 16.1795 4.27197 16.1795 4.29019 16.1795L7.46984 15.9491C7.48806 15.9491 7.5154 15.9491 7.53362 15.9491C7.95271 15.9491 8.31714 16.2348 8.41736 16.6494L9.18266 19.7822C9.20088 19.8467 9.24644 19.8927 9.3011 19.9112C9.35576 19.9388 9.41954 19.9204 9.46509 19.8835L11.9159 17.8012C12.253 17.5155 12.7541 17.5155 13.0912 17.8012L15.5328 19.8835C15.5784 19.9296 15.6422 19.9388 15.6968 19.9204C15.7606 19.902 15.7971 19.8559 15.8153 19.7914L16.5806 16.6586C16.6899 16.2163 17.0817 15.9307 17.5281 15.9584L20.7077 16.1887C20.7351 16.1979 20.7533 16.1979 20.7715 16.1887L20.7897 16.1795C20.8353 16.1703 20.8717 16.1334 20.89 16.0874C20.9082 16.0413 20.9082 15.9952 20.89 15.9491L19.6873 12.9546C19.5233 12.54 19.6782 12.07 20.0518 11.8305L22.7668 10.1259C22.8214 10.089 22.8488 10.0337 22.8488 9.96925C22.8488 9.90475 22.8214 9.84946 22.7668 9.82182ZM12.499 16.4375C8.964 16.4375 6.10323 13.5535 6.10323 9.97846C6.10323 6.40342 8.97311 3.51022 12.499 3.51022C16.0339 3.50101 18.8947 6.40342 18.8947 9.96925C18.8856 13.5351 16.0248 16.4283 12.499 16.4375Z" fill="#CCCCCC"/>
<path d="M20.5176 18.013L18.167 17.8472L17.5839 20.2336C17.511 20.5284 17.3744 20.8049 17.1739 21.0444C16.4633 21.9013 15.206 22.0119 14.3587 21.2932L12.5001 19.736L12.3726 19.8374L13.3747 22.2423L17.4472 31.9999L19.2056 27.2823C19.2147 27.2639 19.2147 27.2547 19.2238 27.2362C19.4243 26.7663 19.9618 26.5544 20.4265 26.7571L25 28.7566L20.5176 18.013Z" fill="#CCCCCC"/>
</svg>
