<svg width="16" height="16" viewBox="0 0 16 16" fill="none" xmlns="http://www.w3.org/2000/svg">
<path d="M15 14.1177H1C0.447715 14.1177 0 14.5391 0 15.0589C0 15.5786 0.447715 16 1 16H15C15.5523 16 16 15.5786 16 15.0589C16 14.5391 15.5523 14.1177 15 14.1177Z" fill="#2E2E2E"/>
<path d="M0 13.1765L0 15.0588C0 15.5786 0.447715 16 1 16C1.55228 16 2 15.5786 2 15.0588V13.1765C2 12.6567 1.55228 12.2353 1 12.2353C0.447715 12.2353 0 12.6567 0 13.1765Z" fill="#2E2E2E"/>
<path d="M14 13.1765V15.0588C14 15.5786 14.4477 16 15 16C15.5523 16 16 15.5786 16 15.0588V13.1765C16 12.6567 15.5523 12.2353 15 12.2353C14.4477 12.2353 14 12.6567 14 13.1765Z" fill="#2E2E2E"/>
<path d="M8.0002 11.2943C7.79288 11.2957 7.59019 11.2365 7.4202 11.1248L3.4202 8.47073C3.20461 8.32679 3.05834 8.10838 3.01336 7.86323C2.96839 7.61808 3.02837 7.36614 3.18019 7.1625C3.25598 7.06071 3.35244 6.97406 3.464 6.90754C3.57556 6.84103 3.70002 6.79597 3.83018 6.77497C3.96034 6.75396 4.09364 6.75744 4.22237 6.78518C4.3511 6.81293 4.47271 6.8644 4.58019 6.93662L8.0002 9.18603L11.4002 6.77662C11.6124 6.62685 11.8791 6.56254 12.1416 6.59784C12.4042 6.63314 12.6411 6.76516 12.8002 6.96485C12.9593 7.16454 13.0277 7.41555 12.9901 7.66266C12.9526 7.90977 12.8124 8.13273 12.6002 8.2825L8.6002 11.106C8.4271 11.2282 8.21657 11.2943 8.0002 11.2943Z" fill="#2E2E2E"/>
<path d="M8 9.41175C7.73478 9.41175 7.48043 9.31259 7.29289 9.13608C7.10536 8.95958 7 8.72019 7 8.47057V0.941175C7 0.69156 7.10536 0.452168 7.29289 0.275664C7.48043 0.0991592 7.73478 0 8 0C8.26522 0 8.51957 0.0991592 8.70711 0.275664C8.89464 0.452168 9 0.69156 9 0.941175V8.47057C9 8.72019 8.89464 8.95958 8.70711 9.13608C8.51957 9.31259 8.26522 9.41175 8 9.41175Z" fill="#2E2E2E"/>
</svg>
