<svg width="16" height="10" viewBox="0 0 16 10" fill="none" xmlns="http://www.w3.org/2000/svg">
<path d="M10.3979 4.52079C10.3979 5.71992 9.32239 6.692 7.99565 6.692C6.66893 6.692 5.59341 5.71992 5.59341 4.52079C5.59341 3.32165 6.66893 2.34958 7.99565 2.34958C9.32239 2.34956 10.3979 3.32166 10.3979 4.52079ZM8 0C6.62633 0.00574841 5.20248 0.321232 3.85461 0.925242C2.85384 1.39218 1.87853 2.05097 1.03192 2.86412C0.616107 3.2792 0.0857467 3.88023 0 4.52149C0.0101333 5.07698 0.641733 5.76261 1.03192 6.17888C1.82583 6.96009 2.77573 7.60049 3.85461 8.11824C5.11156 8.69372 6.50283 9.02505 8 9.04348C9.37497 9.03764 10.7985 8.71852 12.1449 8.11824C13.1457 7.65129 14.1215 6.99203 14.9681 6.17888C15.3839 5.7638 15.9142 5.16276 16 4.52149C15.9899 3.96601 15.3583 3.28035 14.9681 2.86409C14.1742 2.08289 13.2238 1.44298 12.1449 0.925217C10.8886 0.350175 9.49389 0.0211194 8 0ZM7.99899 1.12261C10.0806 1.12261 11.768 2.64454 11.768 4.52198C11.768 6.39941 10.0806 7.92134 7.99899 7.92134C5.9174 7.92134 4.22999 6.3994 4.22999 4.52198C4.22999 2.64454 5.9174 1.12261 7.99899 1.12261Z" fill="#2E2E2E"/>
</svg>
