<svg width="16" height="18" viewBox="0 0 16 18" fill="none" xmlns="http://www.w3.org/2000/svg">
<path d="M15 15.6089H1C0.447715 15.6089 0 16.0566 0 16.6089C0 17.1612 0.447715 17.6089 1 17.6089H15C15.5523 17.6089 16 17.1612 16 16.6089C16 16.0566 15.5523 15.6089 15 15.6089Z" fill="#727272"/>
<path d="M0 14.6089L0 16.6089C0 17.1612 0.447715 17.6089 1 17.6089C1.55228 17.6089 2 17.1612 2 16.6089V14.6089C2 14.0566 1.55228 13.6089 1 13.6089C0.447715 13.6089 0 14.0566 0 14.6089Z" fill="#727272"/>
<path d="M14 14.6089V16.6089C14 17.1612 14.4477 17.6089 15 17.6089C15.5523 17.6089 16 17.1612 16 16.6089V14.6089C16 14.0566 15.5523 13.6089 15 13.6089C14.4477 13.6089 14 14.0566 14 14.6089Z" fill="#727272"/>
<path d="M8.00044 12.6089C7.79312 12.6105 7.59044 12.5476 7.42044 12.4289L3.42044 9.60889C3.20485 9.45596 3.05858 9.22389 3.01361 8.96342C2.96864 8.70294 3.02862 8.43526 3.18044 8.21889C3.25623 8.11074 3.35268 8.01867 3.46424 7.948C3.57581 7.87732 3.70026 7.82945 3.83042 7.80714C3.96059 7.78482 4.09388 7.78851 4.22261 7.81799C4.35134 7.84747 4.47296 7.90216 4.58044 7.97889L8.00044 10.3689L11.4004 7.80889C11.6126 7.64976 11.8793 7.58143 12.1419 7.61894C12.4044 7.65645 12.6413 7.79672 12.8004 8.00889C12.9596 8.22106 13.0279 8.48776 12.9904 8.75031C12.9529 9.01286 12.8126 9.24976 12.6004 9.40889L8.60044 12.4089C8.42734 12.5387 8.21681 12.6089 8.00044 12.6089Z" fill="#727272"/>
<path d="M8 10.6089C7.73478 10.6089 7.48043 10.5035 7.29289 10.316C7.10536 10.1285 7 9.8741 7 9.60889V1.60889C7 1.34367 7.10536 1.08932 7.29289 0.90178C7.48043 0.714244 7.73478 0.608887 8 0.608887C8.26522 0.608887 8.51957 0.714244 8.70711 0.90178C8.89464 1.08932 9 1.34367 9 1.60889V9.60889C9 9.8741 8.89464 10.1285 8.70711 10.316C8.51957 10.5035 8.26522 10.6089 8 10.6089Z" fill="#727272"/>
</svg>
