<svg width="24" height="20" viewBox="0 0 24 20" fill="none" xmlns="http://www.w3.org/2000/svg">
<path d="M3.75 15.25H0.75C0.551088 15.25 0.360322 15.329 0.21967 15.4697C0.0790176 15.6103 0 15.8011 0 16L0 19C0 19.1989 0.0790176 19.3897 0.21967 19.5303C0.360322 19.671 0.551088 19.75 0.75 19.75H3.75C3.94891 19.75 4.13968 19.671 4.28033 19.5303C4.42098 19.3897 4.5 19.1989 4.5 19V16C4.5 15.8011 4.42098 15.6103 4.28033 15.4697C4.13968 15.329 3.94891 15.25 3.75 15.25ZM3.75 0.25H0.75C0.551088 0.25 0.360322 0.329018 0.21967 0.46967C0.0790176 0.610322 0 0.801088 0 1L0 4C0 4.19891 0.0790176 4.38968 0.21967 4.53033C0.360322 4.67098 0.551088 4.75 0.75 4.75H3.75C3.94891 4.75 4.13968 4.67098 4.28033 4.53033C4.42098 4.38968 4.5 4.19891 4.5 4V1C4.5 0.801088 4.42098 0.610322 4.28033 0.46967C4.13968 0.329018 3.94891 0.25 3.75 0.25ZM3.75 7.75H0.75C0.551088 7.75 0.360322 7.82902 0.21967 7.96967C0.0790176 8.11032 0 8.30109 0 8.5L0 11.5C0 11.6989 0.0790176 11.8897 0.21967 12.0303C0.360322 12.171 0.551088 12.25 0.75 12.25H3.75C3.94891 12.25 4.13968 12.171 4.28033 12.0303C4.42098 11.8897 4.5 11.6989 4.5 11.5V8.5C4.5 8.30109 4.42098 8.11032 4.28033 7.96967C4.13968 7.82902 3.94891 7.75 3.75 7.75ZM23.25 16H8.25C8.05109 16 7.86032 16.079 7.71967 16.2197C7.57902 16.3603 7.5 16.5511 7.5 16.75V18.25C7.5 18.4489 7.57902 18.6397 7.71967 18.7803C7.86032 18.921 8.05109 19 8.25 19H23.25C23.4489 19 23.6397 18.921 23.7803 18.7803C23.921 18.6397 24 18.4489 24 18.25V16.75C24 16.5511 23.921 16.3603 23.7803 16.2197C23.6397 16.079 23.4489 16 23.25 16ZM23.25 1H8.25C8.05109 1 7.86032 1.07902 7.71967 1.21967C7.57902 1.36032 7.5 1.55109 7.5 1.75V3.25C7.5 3.44891 7.57902 3.63968 7.71967 3.78033C7.86032 3.92098 8.05109 4 8.25 4H23.25C23.4489 4 23.6397 3.92098 23.7803 3.78033C23.921 3.63968 24 3.44891 24 3.25V1.75C24 1.55109 23.921 1.36032 23.7803 1.21967C23.6397 1.07902 23.4489 1 23.25 1ZM23.25 8.5H8.25C8.05109 8.5 7.86032 8.57902 7.71967 8.71967C7.57902 8.86032 7.5 9.05109 7.5 9.25V10.75C7.5 10.9489 7.57902 11.1397 7.71967 11.2803C7.86032 11.421 8.05109 11.5 8.25 11.5H23.25C23.4489 11.5 23.6397 11.421 23.7803 11.2803C23.921 11.1397 24 10.9489 24 10.75V9.25C24 9.05109 23.921 8.86032 23.7803 8.71967C23.6397 8.57902 23.4489 8.5 23.25 8.5Z" fill="#727272"/>
</svg>
