<svg width="24" height="25" viewBox="0 0 24 25" fill="none" xmlns="http://www.w3.org/2000/svg">
<path d="M13 12.6089C13 12.0566 12.5523 11.6089 12 11.6089C11.4477 11.6089 11 12.0566 11 12.6089C11 13.1612 11.4477 13.6089 12 13.6089C12.5523 13.6089 13 13.1612 13 12.6089Z" stroke="#2E2E2E" stroke-width="2" stroke-linecap="round" stroke-linejoin="round"/>
<path d="M13 5.60889C13 5.0566 12.5523 4.60889 12 4.60889C11.4477 4.60889 11 5.0566 11 5.60889C11 6.16117 11.4477 6.60889 12 6.60889C12.5523 6.60889 13 6.16117 13 5.60889Z" stroke="#2E2E2E" stroke-width="2" stroke-linecap="round" stroke-linejoin="round"/>
<path d="M13 19.6089C13 19.0566 12.5523 18.6089 12 18.6089C11.4477 18.6089 11 19.0566 11 19.6089C11 20.1612 11.4477 20.6089 12 20.6089C12.5523 20.6089 13 20.1612 13 19.6089Z" stroke="#2E2E2E" stroke-width="2" stroke-linecap="round" stroke-linejoin="round"/>
</svg>
