<svg width="32" height="31" viewBox="0 0 32 31" fill="none" xmlns="http://www.w3.org/2000/svg">
<path d="M31.5312 28.6416L21.3867 18.7507C22.9609 16.7664 23.8125 14.3403 23.8125 11.7886C23.8125 8.73408 22.5898 5.87002 20.3789 3.71055C18.168 1.55107 15.2227 0.362793 12.0938 0.362793C8.96484 0.362793 6.01953 1.55488 3.80859 3.71055C1.59375 5.86621 0.375 8.73408 0.375 11.7886C0.375 14.8393 1.59766 17.7109 3.80859 19.8666C6.01953 22.0261 8.96094 23.2144 12.0938 23.2144C14.7109 23.2144 17.1953 22.3841 19.2305 20.853L29.375 30.7401C29.4047 30.7692 29.4401 30.7922 29.4789 30.8079C29.5178 30.8236 29.5595 30.8317 29.6016 30.8317C29.6436 30.8317 29.6853 30.8236 29.7242 30.8079C29.7631 30.7922 29.7984 30.7692 29.8281 30.7401L31.5312 29.0834C31.561 29.0544 31.5846 29.02 31.6007 28.9821C31.6168 28.9442 31.6251 28.9035 31.6251 28.8625C31.6251 28.8215 31.6168 28.7808 31.6007 28.7429C31.5846 28.705 31.561 28.6706 31.5312 28.6416ZM18.2812 17.8214C16.625 19.4324 14.4297 20.3198 12.0938 20.3198C9.75781 20.3198 7.5625 19.4324 5.90625 17.8214C4.25391 16.2065 3.34375 14.0661 3.34375 11.7886C3.34375 9.51103 4.25391 7.3668 5.90625 5.75576C7.5625 4.14473 9.75781 3.25732 12.0938 3.25732C14.4297 3.25732 16.6289 4.14092 18.2812 5.75576C19.9336 7.37061 20.8438 9.51103 20.8438 11.7886C20.8438 14.0661 19.9336 16.2104 18.2812 17.8214Z" fill="#B1B1B1"/>
</svg>
